<svg width="60" height="60" viewBox="0 0 60 60" fill="none" xmlns="http://www.w3.org/2000/svg">
<path d="M4 40.4H14L18 0H0L4 40.4Z" fill="#211D70"/>
<path d="M8.9998 60C13.2524 60 16.6998 56.5974 16.6998 52.4001C16.6998 48.2027 13.2524 44.8 8.9998 44.8C4.74721 44.8 1.2998 48.2027 1.2998 52.4001C1.2998 56.5974 4.74721 60 8.9998 60Z" fill="#211D70"/>
<path d="M38.2 0.0999996C26.6 0.8 20.5 7.4 20 19.3H31.7C31.8 15.2 34.2 12.1 38.4 11.6C42.6 11.2 46.6 12.2 47.8 15C49.1 18.1 46.2 21.7 44.8 23.2C42.2 26 38 28.1 35.9 31.1C33.8 34.1 33.4 38 33.2 42.8H43.5C43.6 39.7 43.8 36.8 45.2 34.9C47.5 31.8 50.9 30.4 53.7 27.9C56.4 25.6 59.3 22.8 59.7 18.4C61.3 5.5 50.7 -0.7 38.2 0.0999996Z" fill="#211D70"/>
<path d="M38.5 60C42.0899 60 45 57.1346 45 53.5999C45 50.0653 42.0899 47.2 38.5 47.2C34.9101 47.2 32 50.0653 32 53.5999C32 57.1346 34.9101 60 38.5 60Z" fill="#211D70"/>
</svg>
